<svg id="Layer_1" data-name="Layer 1" xmlns="http://www.w3.org/2000/svg" viewBox="0 0 121.5 121.5"><defs><style>.cls-1{fill:#fff;}</style></defs><title>logo_01</title><path class="cls-1" d="M72.69,71.9l3.39-6,.14.08,13-22.35A33.14,33.14,0,0,1,92.09,71.9Z"/><path class="cls-1" d="M32.07,44.26A33.14,33.14,0,0,1,55,28.1l9.33,16.16Z"/><path class="cls-1" d="M70,44.26h-.16L60.22,27.59h.63A33,33,0,0,1,86.2,39.37L76.56,55.91Z"/><path class="cls-1" d="M32.46,77.88A33.17,33.17,0,0,1,29.83,49H49l-4.37,7.77-.46.77Z"/><path class="cls-1" d="M57.06,76.67H90A33,33,0,0,1,66.69,93.4Z"/><path class="cls-1" d="M60.85,93.92A33,33,0,0,1,35.5,82.12l9.76-16.9L49,71.77l-.15.09,12.69,22Z"/><path class="cls-1" d="M117.3,68.4a63,63,0,0,0,.5-7.5,62.72,62.72,0,0,0-.5-7.4v-.1l-9.7,1.2a43.62,43.62,0,0,0-3.2-11.9l9-3.7A59.09,59.09,0,0,0,106,26.1L98.3,32a44.81,44.81,0,0,0-8.7-8.7l5.9-7.7A58.41,58.41,0,0,0,82.7,8.2l-3.7,9A47.52,47.52,0,0,0,67.1,14l1.3-9.7A60,60,0,0,0,61,3.8a62.72,62.72,0,0,0-7.4.5h-.1L54.7,14a43.62,43.62,0,0,0-11.9,3.2l-3.7-9a59.09,59.09,0,0,0-12.9,7.4l5.9,7.7A44.81,44.81,0,0,0,23.4,32l-7.7-5.9A56.18,56.18,0,0,0,8.3,38.9l9,3.8a47.52,47.52,0,0,0-3.2,11.9L4.4,53.3a60,60,0,0,0-.5,7.4,62.72,62.72,0,0,0,.5,7.4h0l9.7-1.2a43.62,43.62,0,0,0,3.2,11.9l-9,3.7a59.09,59.09,0,0,0,7.4,12.9l7.7-5.9a44.81,44.81,0,0,0,8.7,8.7l-5.9,7.7A56.18,56.18,0,0,0,39,113.3l3.8-9a47.52,47.52,0,0,0,11.9,3.2l-1.3,9.7a62.72,62.72,0,0,0,7.4.5,62.72,62.72,0,0,0,7.4-.5h0l-1.3-9.7h0a43.62,43.62,0,0,0,11.9-3.2l3.7,9a59.09,59.09,0,0,0,12.9-7.4l-5.9-7.7a44.81,44.81,0,0,0,8.7-8.7l7.7,6a56.18,56.18,0,0,0,7.4-12.8l-9-3.8A43.62,43.62,0,0,0,107.5,67ZM65.7,97.7A37.15,37.15,0,1,1,97.8,56.1,37.15,37.15,0,0,1,65.7,97.7Z"/></svg>