<?xml version="1.0" encoding="utf-8"?>
<!-- Generator: Adobe Illustrator 23.0.1, SVG Export Plug-In . SVG Version: 6.00 Build 0)  -->
<svg version="1.1" id="Layer_1" xmlns="http://www.w3.org/2000/svg" xmlns:xlink="http://www.w3.org/1999/xlink" x="0px" y="0px"
	 viewBox="0 0 121.5 121.5" style="enable-background:new 0 0 121.5 121.5;" xml:space="preserve">
<style type="text/css">
	.st0{fill:#1E1E1E;}
</style>
<title>logo_01</title>
<path class="st0" d="M72.7,71.9l3.4-6l0.1,0.1l13-22.3c5.2,8.5,6.2,18.9,2.9,28.3H72.7z"/>
<path class="st0" d="M32.1,44.3c4.9-8.5,13.3-14.4,22.9-16.2l9.3,16.2L32.1,44.3z"/>
<path class="st0" d="M70,44.3h-0.2l-9.6-16.7h0.6c9.8,0,19.1,4.3,25.3,11.8l-9.6,16.5L70,44.3z"/>
<path class="st0" d="M32.5,77.9c-5.3-8.7-6.2-19.4-2.6-28.9H49l-4.4,7.8l-0.5,0.8L32.5,77.9z"/>
<path class="st0" d="M57.1,76.7H90c-4.8,8.8-13.4,15-23.3,16.7L57.1,76.7z"/>
<path class="st0" d="M60.8,93.9c-9.8,0-19.1-4.3-25.3-11.8l9.8-16.9l3.7,6.5l-0.2,0.1l12.7,22L60.8,93.9z"/>
<path class="st0" d="M117.3,68.4c0.3-2.5,0.5-5,0.5-7.5c0-2.5-0.2-4.9-0.5-7.4v-0.1l-9.7,1.2c-0.5-4.1-1.6-8.1-3.2-11.9l9-3.7
	c-1.9-4.6-4.4-8.9-7.4-12.9L98.3,32c-2.5-3.3-5.4-6.2-8.7-8.7l5.9-7.7c-3.9-3-8.2-5.5-12.8-7.4l-3.7,9c-3.8-1.6-7.8-2.7-11.9-3.2
	l1.3-9.7C65.9,4,63.5,3.8,61,3.8c-2.5,0-4.9,0.2-7.4,0.5h-0.1l1.2,9.7c-4.1,0.5-8.1,1.6-11.9,3.2l-3.7-9c-4.6,1.9-8.9,4.4-12.9,7.4
	l5.9,7.7c-3.3,2.5-6.2,5.4-8.7,8.7l-7.7-5.9c-3,3.9-5.5,8.2-7.4,12.8l9,3.8c-1.6,3.8-2.7,7.8-3.2,11.9l-9.7-1.3
	c-0.3,2.5-0.5,4.9-0.5,7.4c0,2.5,0.2,4.9,0.5,7.4l0,0l9.7-1.2c0.5,4.1,1.6,8.1,3.2,11.9l-9,3.7c1.9,4.6,4.4,8.9,7.4,12.9l7.7-5.9
	c2.5,3.3,5.4,6.2,8.7,8.7l-5.9,7.7c3.9,3,8.2,5.5,12.8,7.4l3.8-9c3.8,1.6,7.8,2.7,11.9,3.2l-1.3,9.7c2.5,0.3,4.9,0.5,7.4,0.5
	c2.5,0,4.9-0.2,7.4-0.5l0,0l-1.3-9.7l0,0c4.1-0.5,8.1-1.6,11.9-3.2l3.7,9c4.6-1.9,8.9-4.4,12.9-7.4l-5.9-7.7
	c3.3-2.5,6.2-5.4,8.7-8.7l7.7,6c3-3.9,5.5-8.2,7.4-12.8l-9-3.8c1.6-3.8,2.7-7.8,3.2-11.9L117.3,68.4z M65.7,97.7
	c-20.3,2.6-39-11.8-41.6-32.1s11.8-39,32.1-41.6c20.3-2.6,39,11.7,41.6,32.1C100.4,76.4,86.1,95.1,65.7,97.7
	C65.7,97.7,65.7,97.7,65.7,97.7z"/>
</svg>
